<?xml version="1.0" encoding="UTF-8"?>
<svg version="1.1" xmlns="http://www.w3.org/2000/svg" width="298" height="302">
<path d="M0 0 C98.34 0 196.68 0 298 0 C298 99.66 298 199.32 298 302 C199.66 302 101.32 302 0 302 C0 202.34 0 102.68 0 0 Z " fill="#202022" transform="translate(0,0)"/>
<path d="M0 0 C11.35328016 4.24007892 22.68259494 8.54015592 34 12.875 C35.5650854 13.47400736 37.13018949 14.0729659 38.6953125 14.671875 C42.46375607 16.11402388 46.23195056 17.55682166 50 19 C50 23.29 50 27.58 50 32 C43.20240484 34.71023662 36.40306679 37.4160348 29.60205078 40.11767578 C27.28710863 41.03799613 24.97265354 41.95954259 22.65869141 42.88232422 C19.33882913 44.20600378 16.01725884 45.52531093 12.6953125 46.84375 C11.13588425 47.46715271 11.13588425 47.46715271 9.54495239 48.10314941 C8.58410736 48.4835437 7.62326233 48.86393799 6.63330078 49.25585938 C5.78502716 49.59339233 4.93675354 49.93092529 4.06277466 50.27868652 C2 51 2 51 0 51 C0 46.71 0 42.42 0 38 C10.89 34.04 21.78 30.08 33 26 C25.48351131 22.6532385 25.48351131 22.6532385 17.87109375 19.640625 C16.81728516 19.24746094 15.76347656 18.85429687 14.67773438 18.44921875 C13.60845703 18.05347656 12.53917969 17.65773437 11.4375 17.25 C10.33341797 16.83878906 9.22933594 16.42757812 8.09179688 16.00390625 C5.39547003 15.00007894 2.69786568 13.99968419 0 13 C0 8.71 0 4.42 0 0 Z " fill="#DCB04B" transform="translate(101,121)"/>
<path d="M0 0 C19.14 0 38.28 0 58 0 C58 3.3 58 6.6 58 10 C38.86 10 19.72 10 0 10 C0 6.7 0 3.4 0 0 Z " fill="#DCB04B" transform="translate(150,185)"/>
</svg>
